<?xml version="1.0" encoding="UTF-8" standalone="no"?>
<!-- Uploaded to: SVG Repo, www.svgrepo.com, Generator: SVG Repo Mixer Tools -->

<svg
   fill="#000000"
   width="750"
   height="650"
   viewBox="0 0 240 208"
   id="Flat"
   version="1.1"
   sodipodi:docname="brain.svg"
   inkscape:version="1.2.2 (b0a84865, 2022-12-01)"
   inkscape:export-filename="brain.svg"
   inkscape:export-xdpi="96"
   inkscape:export-ydpi="96"
   xmlns:inkscape="http://www.inkscape.org/namespaces/inkscape"
   xmlns:sodipodi="http://sodipodi.sourceforge.net/DTD/sodipodi-0.dtd"
   xmlns="http://www.w3.org/2000/svg"
   xmlns:svg="http://www.w3.org/2000/svg">
  <defs
     id="defs57" />
  <sodipodi:namedview
     id="namedview55"
     pagecolor="#505050"
     bordercolor="#eeeeee"
     borderopacity="1"
     inkscape:showpageshadow="0"
     inkscape:pageopacity="0"
     inkscape:pagecheckerboard="0"
     inkscape:deskcolor="#505050"
     showgrid="false"
     inkscape:zoom="0.295"
     inkscape:cx="401.69492"
     inkscape:cy="401.69492"
     inkscape:window-width="3840"
     inkscape:window-height="2107"
     inkscape:window-x="0"
     inkscape:window-y="25"
     inkscape:window-maximized="1"
     inkscape:current-layer="Flat" />
  <path
     d="m 232,108.00001 a 48.01975,48.01975 0 0 1 -31.99951,45.26855 L 200,153.26686 v 6.73315 a 40,40 0 0 1 -80,0 40,40 0 0 1 -80.000003,0 v -6.73315 l -4.9e-4,0.002 a 48.01968,48.01968 0 0 1 -4.9e-4,-90.537004 l 9.8e-4,-14.73185 a 40,40 0 0 1 80.000003,0 40,40 0 0 1 80,0 l 0.001,14.73157 A 48.02,48.02 0 0 1 232,108.00001 Z"
     opacity="0.2"
     id="path50"
     style="opacity:1;fill:#ffb380"
     inkscape:highlight-color="#aaaaaa" />
  <path
     d="M 240,108.00001 A 56.1211,56.1211 0 0 0 208.00049,57.389656 L 208,48.000006 a 47.98283,47.98283 0 0 0 -88,-26.49316 47.98283,47.98283 0 0 0 -88.000003,26.49267 l -4.9e-4,9.39014 a 56.00268,56.00268 0 0 0 4.9e-4,101.196044 v 1.41431 A 47.98283,47.98283 0 0 0 120,186.49317 47.98283,47.98283 0 0 0 208,160.00001 v -1.41431 a 56.06726,56.06726 0 0 0 32,-50.58569 z m -160.000003,84 a 32.0433,32.0433 0 0 1 -31.812,-28.55664 56.1738,56.1738 0 0 0 7.812,0.55664 h 8 a 8,8 0 0 0 0,-16 h -8 a 40.00827,40.00827 0 0 1 -13.33447,-77.726074 7.99958,7.99958 0 0 0 5.33349,-7.542 l 9.8e-4,-14.73193 a 32,32 0 0 1 64.000003,0 v 76.261474 a 47.80252,47.80252 0 0 0 -32.000003,-12.26147 8,8 0 0 0 0,16 32,32 0 0 1 0,64 z M 184,148.00001 h -8 a 8,8 0 0 0 0,16 h 8 a 56.1738,56.1738 0 0 0 7.812,-0.55664 31.999,31.999 0 1 1 -31.812,-35.44336 8,8 0 0 0 0,-16 47.80252,47.80252 0 0 0 -32,12.26147 V 48.000006 a 32,32 0 1 1 64,4.9e-4 l 0.001,14.73144 a 7.99958,7.99958 0 0 0 5.33349,7.542 A 40.00827,40.00827 0 0 1 184,148.00001 Z m -132.000003,-44 a 8,8 0 0 1 0,-16.000004 20.0226,20.0226 0 0 0 20,-20 v -8 a 8,8 0 0 1 16,0 v 8 a 36.04061,36.04061 0 0 1 -36,36.000004 z M 196,96.000006 a 8.00008,8.00008 0 0 1 -8,8.000004 36.04061,36.04061 0 0 1 -36,-36.000004 v -8 a 8,8 0 0 1 16,0 v 8 a 20.0226,20.0226 0 0 0 20,20 8.00008,8.00008 0 0 1 8,8 z"
     id="path52"
     style="fill:#241f1c" />
</svg>
